<svg width="26" height="15" viewBox="0 0 26 15" fill="none" xmlns="http://www.w3.org/2000/svg">
<path d="M1 14.0001C4.10319 11.6685 7.27488 8.62522 9.80654 5.40214C10.7732 4.17151 12.3156 1.68993 13.3994 1" stroke="white" stroke-width="0.5" stroke-linecap="round" stroke-linejoin="round"/>
<path d="M13.6416 1.30957C14.8581 2.2917 15.9613 3.42867 17.1804 4.42202C17.8644 4.97928 18.6588 5.53035 19.2335 6.26197C20.003 7.24169 21.391 7.88473 21.9619 9.0477C22.3233 9.78387 23.4991 10.6986 24.096 11.1456C24.653 11.5627 24.9884 12.4015 25.5547 12.762" stroke="white" stroke-width="0.5" stroke-linecap="round" stroke-linejoin="round"/>
<path d="M1 14C8.92452 14 16.9819 13.6904 24.8263 13.6904" stroke="white" stroke-width="0.5" stroke-linecap="round" stroke-linejoin="round"/>
<path d="M13.6415 13.6902C13.6415 9.87105 13.1553 5.88099 13.1553 2.23779" stroke="white" stroke-width="0.5" stroke-linecap="round" stroke-linejoin="round"/>
<path d="M19.2343 13.6903C19.1928 11.1057 18.5049 8.76928 18.5049 6.26172" stroke="white" stroke-width="0.5" stroke-linecap="round" stroke-linejoin="round"/>
<path d="M8.53609 14.0001C8.53609 11.8005 8.29297 9.88944 8.29297 7.80957" stroke="white" stroke-width="0.5" stroke-linecap="round" stroke-linejoin="round"/>
</svg>
