<svg width="24" height="13" viewBox="0 0 24 13" fill="none" xmlns="http://www.w3.org/2000/svg">
<path d="M1 12.023C2.72135 10.3786 4.11662 8.42137 5.75383 6.68647C6.82937 5.54676 8.1152 4.60846 9.10097 3.36207C9.56507 2.77528 10.0784 2.29302 10.6077 1.78736C10.91 1.49858 11.5225 1.41828 11.7086 1" stroke="white" stroke-linecap="round" stroke-linejoin="round"/>
<path d="M22.9999 12.1816C20.6736 10.1705 18.9618 7.93902 16.8288 5.68005C15.8938 4.6898 14.8723 3.86848 13.9209 2.91805C13.5671 2.56459 13.0768 2.1172 12.631 1.92448C12.3081 1.7849 12.1892 1.38251 11.9082 1.22461" stroke="white" stroke-linecap="round" stroke-linejoin="round"/>
<path d="M21.9169 11.798C16.2568 11.798 10.5967 11.798 4.93654 11.798C3.9728 11.798 3.00906 11.798 2.04532 11.798C1.73546 11.798 1.4615 11.8324 1.2002 11.6855" stroke="white" stroke-width="0.5" stroke-linecap="round" stroke-linejoin="round"/>
<path d="M11.5078 1.89941C11.5078 5.05707 11.8081 8.21237 11.8081 11.3477" stroke="white" stroke-width="0.5" stroke-linecap="round" stroke-linejoin="round"/>
<path d="M14.21 3.69922C14.21 4.67092 14.2905 5.55468 14.4324 6.51121C14.5493 7.29944 14.4379 8.0857 14.5158 8.87328C14.5902 9.62585 14.5471 10.9184 14.5471 11.6816" stroke="white" stroke-width="0.5" stroke-linecap="round" stroke-linejoin="round"/>
<path d="M17.6123 11.4604C17.6123 10.1106 17.6123 8.76089 17.6123 7.41113" stroke="white" stroke-width="0.5" stroke-linecap="round" stroke-linejoin="round"/>
<path d="M8.40527 11.573C8.40527 9.32341 8.40527 7.07381 8.40527 4.82422" stroke="white" stroke-width="0.5" stroke-linecap="round" stroke-linejoin="round"/>
<path d="M5.30273 11.3477C5.30273 10.1873 5.40282 8.98644 5.40282 7.86084" stroke="white" stroke-width="0.5" stroke-linecap="round" stroke-linejoin="round"/>
</svg>
