<svg width="16" height="16" viewBox="0 0 16 16" fill="none" xmlns="http://www.w3.org/2000/svg">
<path d="M8 1C8 5.7037 8 10.4074 8 15.1111" stroke="white" stroke-width="0.5" stroke-linecap="round" stroke-linejoin="round"/>
<path d="M1 8.22217C4.62963 8.22217 8.25926 8.22217 11.8889 8.22217C12.9395 8.22217 13.9758 8.44439 15 8.44439" stroke="white" stroke-width="0.5" stroke-linecap="round" stroke-linejoin="round"/>
<path d="M13.1955 14.0853C11.6758 12.3027 10.372 10.3577 8.87134 8.56038C8.25698 7.82454 7.62709 7.0978 6.94884 6.41954C6.50939 5.98009 6.02422 5.58461 5.60854 5.1217C4.8253 4.24945 4.2343 3.16402 3.15234 2.62305" stroke="white" stroke-width="0.5" stroke-linecap="round" stroke-linejoin="round"/>
<path d="M3.58887 13.4301C4.93543 11.5705 7.04899 10.4103 8.54372 8.69356C9.34826 7.76954 10.1493 6.83016 10.9817 5.93109C11.4426 5.43333 11.7098 4.76279 12.0491 4.1784C12.2161 3.89076 12.4069 3.58574 12.6374 3.34451C12.7392 3.23794 12.8757 3.14519 12.9224 3.00488" stroke="white" stroke-width="0.5" stroke-linecap="round" stroke-linejoin="round"/>
<path d="M11.6123 5.5707C11.8308 5.5707 13.2553 5.72343 13.3589 5.51611" stroke="white" stroke-width="0.5" stroke-linecap="round" stroke-linejoin="round"/>
<path d="M11.1213 5.13376C11.1101 4.54846 10.925 3.97207 10.903 3.39926C10.8988 3.28983 10.8144 2.87888 10.7393 2.84131" stroke="white" stroke-width="0.5" stroke-linecap="round" stroke-linejoin="round"/>
<path d="M5.2264 4.58776C5.2264 4.01726 5.19617 3.4533 5.33556 2.89571C5.38632 2.69268 5.49931 2.45031 5.49931 2.24072" stroke="white" stroke-width="0.5" stroke-linecap="round" stroke-linejoin="round"/>
<path d="M3.31641 5.62489C3.88688 5.45768 4.27098 5.21614 4.68096 4.80615" stroke="white" stroke-width="0.5" stroke-linecap="round" stroke-linejoin="round"/>
<path d="M3.64355 10.7012C4.03438 10.773 4.39213 11.0018 4.77765 11.1257C4.91834 11.1709 5.08271 11.247 5.22644 11.247" stroke="white" stroke-width="0.5" stroke-linecap="round" stroke-linejoin="round"/>
<path d="M5.28125 11.9565C5.35195 12.3729 5.60874 12.8528 5.60874 13.2665" stroke="white" stroke-width="0.5" stroke-linecap="round" stroke-linejoin="round"/>
<path d="M11.6123 11.793C12.1071 11.7074 12.5822 11.5747 13.086 11.5747" stroke="white" stroke-width="0.5" stroke-linecap="round" stroke-linejoin="round"/>
<path d="M11.2299 11.7925C11.2299 12.2595 11.138 12.7211 11.1208 13.1692C11.1158 13.2983 11.0649 13.7035 10.957 13.7574" stroke="white" stroke-width="0.5" stroke-linecap="round" stroke-linejoin="round"/>
<path d="M2.06055 6.49854C2.4437 6.75908 2.7405 7.06151 3.08548 7.34759C3.20226 7.44444 3.47176 7.57434 3.53427 7.69934" stroke="white" stroke-width="0.5" stroke-linecap="round" stroke-linejoin="round"/>
<path d="M2.2793 10.1554C2.57701 9.7675 2.82427 9.33103 3.09803 8.9243C3.19632 8.77827 3.37109 8.62668 3.42552 8.46338" stroke="white" stroke-width="0.5" stroke-linecap="round" stroke-linejoin="round"/>
<path d="M5.99121 1.53125C6.50499 1.87706 7.03237 2.19033 7.46493 2.62289" stroke="white" stroke-width="0.5" stroke-linecap="round" stroke-linejoin="round"/>
<path d="M8.17383 3.11437C8.56764 2.59182 8.99415 2.12424 9.45348 1.66491C9.58387 1.53452 9.84402 1.3023 9.92046 1.14941" stroke="white" stroke-width="0.5" stroke-linecap="round" stroke-linejoin="round"/>
<path d="M6.48242 13.9219C6.75747 13.4869 7.06764 13.0091 7.43458 12.6422C7.51951 12.5573 7.63172 12.4966 7.68323 12.3936" stroke="white" stroke-width="0.5" stroke-linecap="round" stroke-linejoin="round"/>
<path d="M8.17383 12.2837C8.58715 12.4593 9.02668 12.601 9.42922 12.8022C9.57505 12.8751 9.7177 12.9985 9.86588 13.0478" stroke="white" stroke-width="0.5" stroke-linecap="round" stroke-linejoin="round"/>
<path d="M12.8682 8.02639C13.2652 7.54427 13.8527 7.27763 14.2327 6.771" stroke="white" stroke-width="0.5" stroke-linecap="round" stroke-linejoin="round"/>
<path d="M12.4316 8.62695C12.9034 9.11021 13.3372 9.67065 13.7416 10.2098" stroke="white" stroke-width="0.5" stroke-linecap="round" stroke-linejoin="round"/>
</svg>
