<svg width="13" height="16" viewBox="0 0 13 16" fill="none" xmlns="http://www.w3.org/2000/svg">
<path d="M3.12402 3.35303C4.33957 3.14838 5.5595 2.70469 6.71363 2.30724C7.65702 1.98237 8.6471 1.79233 9.59455 1.48555C10.2061 1.28753 10.8787 1 11.5357 1" stroke="white" stroke-width="0.5" stroke-linecap="round" stroke-linejoin="round"/>
<path d="M2.94141 3.60547C2.97974 5.2086 3.40359 6.77997 3.40359 8.39557C3.40359 9.17369 3.40359 9.95181 3.40359 10.7299C3.40359 11.5485 3.40359 12.3671 3.40359 13.1857" stroke="white" stroke-width="0.5" stroke-linecap="round" stroke-linejoin="round"/>
<path d="M3.40334 13.1854C2.57719 13.1854 1.9412 13.1051 1.36974 13.6896C1.08426 13.9816 1 14.4105 1 14.7821C1 15.1707 1.03346 15.4089 1.46218 15.6038C1.90031 15.8029 2.2969 15.4518 2.57141 15.2022C2.94304 14.8644 3.87362 13.4009 2.82818 13.4375C1.96917 13.4675 2.35768 14.8372 1.73949 15.1182" stroke="white" stroke-width="0.5" stroke-linecap="round" stroke-linejoin="round"/>
<path d="M11.2607 1.25244C11.2607 3.49105 11.6305 5.69838 11.6305 7.93337C11.6305 8.92075 12.0002 9.85964 12.0002 10.8326" stroke="white" stroke-width="0.5" stroke-linecap="round" stroke-linejoin="round"/>
<path d="M11.8134 10.7485C10.4169 10.7744 9.68733 11.7952 9.68733 12.9755C9.68733 13.441 9.64391 13.6058 10.1957 13.6058C10.6057 13.6058 10.9204 13.0862 11.1663 12.8495C11.5179 12.511 11.6018 11.9976 11.8134 11.5889C11.8797 11.4608 12.121 10.4782 11.6747 10.8839C11.3267 11.2003 11.171 11.6734 10.8479 12.0091C10.6339 12.2314 10.5112 12.8111 10.2419 12.9335" stroke="white" stroke-width="0.5" stroke-linecap="round" stroke-linejoin="round"/>
<path d="M3.12402 3.77328C4.65385 3.77328 6.02446 3.22398 7.46852 2.84888C8.13911 2.67469 8.74819 2.32396 9.41482 2.13457C9.87253 2.00453 10.382 1.86065 10.7962 1.67236" stroke="white" stroke-width="0.5" stroke-linecap="round" stroke-linejoin="round"/>
<path d="M1.84689 14.4909C1.51279 14.7282 1.6516 15.0116 1.438 15.2543C1.2413 15.4779 1.78496 14.7714 1.898 14.5042C2.04869 14.148 2.12051 13.6957 2.66466 13.8371C3.10005 13.9502 2.43635 14.6426 2.33609 14.7598C1.9742 15.1828 1.58403 14.5755 1.58403 14.252" stroke="white" stroke-linecap="round" stroke-linejoin="round"/>
<path d="M10.6521 11.445C10.3905 11.9305 10.2578 12.3893 10.2578 12.9253C10.2578 13.462 10.5084 13.0952 10.747 12.8191C10.9885 12.5396 11.1288 12.1649 11.3421 11.8632C11.5244 11.6054 11.5721 11.5347 11.5721 11.2061" stroke="white" stroke-linecap="round" stroke-linejoin="round"/>
<path d="M4.21094 3.43896C4.76577 3.27755 5.4025 3.26905 5.91949 3.03404C6.65286 2.70067 7.45081 2.54242 8.21947 2.27066C8.68216 2.10708 9.15818 1.99995 9.59946 1.79936C9.91947 1.65389 10.4415 1.40771 10.7823 1.40771" stroke="white" stroke-linecap="round" stroke-linejoin="round"/>
<path d="M3.81738 4.21582C4.14584 4.16804 4.5056 4.09633 4.83594 4.09633C5.09067 4.09633 5.2343 3.96006 5.46022 3.85736C6.09956 3.56674 6.80743 3.52355 7.46449 3.28981C8.57338 2.89532 9.80161 2.66057 10.8487 2.18457" stroke="white" stroke-linecap="round" stroke-linejoin="round"/>
</svg>
