<svg width="9" height="8" viewBox="0 0 9 8" fill="none" xmlns="http://www.w3.org/2000/svg">
<path d="M4.7253 0C3.11808 0 1.6997 0.91034 1.03922 2.29037L0.579768 1.35391L0 1.62803L0.954163 3.57223L2.93478 2.63555L2.65547 2.06655L1.62368 2.55437C2.18106 1.3955 3.37387 0.631677 4.7253 0.631677C6.61739 0.631677 8.15666 2.14271 8.15666 4C8.15666 5.85729 6.61739 7.36838 4.7253 7.36838C3.61119 7.36838 2.56214 6.8341 1.91923 5.93923L1.39326 6.30337C2.15685 7.36575 3.4024 8 4.7253 8C6.97203 8 8.8 6.20562 8.8 4C8.8 1.79438 6.97205 0 4.7253 0Z" fill="white"/>
</svg>
