<svg width="22" height="19" viewBox="0 0 22 19" fill="none" xmlns="http://www.w3.org/2000/svg">
<path d="M11.8328 0.65255C11.5992 0.549162 11.3338 0.56984 11.1321 0.735261L4.66713 5.77027H1.57794C0.845458 5.77027 0.250977 6.34925 0.250977 7.06262V12.2424C0.250977 12.9558 0.845458 13.5347 1.57794 13.5347H4.66713L11.1321 18.5697C11.2489 18.6628 11.3975 18.7145 11.5461 18.7145C11.6417 18.7145 11.7478 18.6938 11.8328 18.6524C12.0663 18.5491 12.2043 18.3216 12.2043 18.0735V1.24186C12.2149 0.993732 12.0663 0.766277 11.8328 0.65255Z" fill="white"/>
<g clip-path="url(#clip0)">
<path d="M19.039 9.65505L21.8618 6.83212C22.0455 6.6485 22.0455 6.35161 21.8618 6.16799C21.6782 5.98437 21.3813 5.98437 21.1977 6.16799L18.3748 8.99092L15.5519 6.16799C15.3682 5.98437 15.0714 5.98437 14.8878 6.16799C14.7041 6.35161 14.7041 6.6485 14.8878 6.83212L17.7106 9.65505L14.8878 12.478C14.7041 12.6616 14.7041 12.9585 14.8878 13.1421C14.9793 13.2337 15.0996 13.2797 15.2198 13.2797C15.3401 13.2797 15.4603 13.2337 15.5519 13.1421L18.3748 10.3192L21.1977 13.1421C21.2893 13.2337 21.4095 13.2797 21.5298 13.2797C21.65 13.2797 21.7702 13.2337 21.8618 13.1421C22.0455 12.9585 22.0455 12.6616 21.8618 12.478L19.039 9.65505Z" fill="white"/>
</g>
<defs>
<clipPath id="clip0">
<rect width="7.24959" height="7.24959" fill="white" transform="translate(14.75 6.02661)"/>
</clipPath>
</defs>
</svg>
