<svg width="13" height="12" viewBox="0 0 13 12" fill="none" xmlns="http://www.w3.org/2000/svg">
<path d="M7.48274 0.0408288C7.33185 -0.0259682 7.16038 -0.0126088 7.03007 0.0942664L2.85318 3.34728H0.857325C0.384082 3.34728 0 3.72134 0 4.18224V7.52877C0 7.98967 0.384082 8.36373 0.857325 8.36373H2.85318L7.03007 11.6167C7.10551 11.6769 7.20153 11.7103 7.29755 11.7103C7.35928 11.7103 7.42787 11.6969 7.48274 11.6702C7.63362 11.6034 7.72279 11.4564 7.72279 11.2961V0.421571C7.72965 0.261259 7.63362 0.114305 7.48274 0.0408288Z" fill="white"/>
<path d="M9.89709 2.90017C9.72562 2.73986 9.45814 2.73986 9.28667 2.90685C9.12207 3.07385 9.12207 3.33435 9.29353 3.50135C9.9451 4.12256 10.3017 4.9642 10.3017 5.86596C10.3017 6.76772 9.9451 7.60268 9.29353 8.23057C9.12207 8.39088 9.12207 8.65807 9.28667 8.82506C9.36898 8.90522 9.47871 8.95198 9.58845 8.95198C9.69819 8.95198 9.80793 8.9119 9.89023 8.83174C10.7064 8.05022 11.1522 7.00151 11.1522 5.87932C11.1522 4.75713 10.7133 3.6817 9.89709 2.90017Z" fill="white"/>
<path d="M11.1105 1.7174C10.939 1.55709 10.6715 1.55709 10.5001 1.7174C10.3355 1.88439 10.3355 2.1449 10.5001 2.3119C11.474 3.25373 12.0158 4.50952 12.0158 5.85213C12.0158 7.19475 11.4808 8.45054 10.5001 9.39237C10.3355 9.55269 10.3286 9.81987 10.5001 9.98686C10.5824 10.067 10.6921 10.1071 10.8018 10.1071C10.9116 10.1071 11.0213 10.067 11.1036 9.98686C12.2421 8.88472 12.8731 7.42186 12.8731 5.85213C12.8731 4.28241 12.249 2.81955 11.1105 1.7174Z" fill="white"/>
</svg>
